<svg xmlns="http://www.w3.org/2000/svg" viewBox="0 0 428 512" width="80" height="80" class="m-auto mt-6"><defs><style>.cls-1{fill:#e25444}.cls-1,.cls-2,.cls-3{fill-rule:evenodd}.cls-2{fill:#7b1d13}.cls-3{fill:#58150d}</style></defs><path class="cls-1" d="m378 99-83 158 83 158 34-19V118Z"></path><path class="cls-2" d="m378 99-166 19-84.5 139L212 396l166 19V99Z"></path><path class="cls-3" d="m43 99-27 12v292l27 12 169-158Z"></path><path class="cls-1" d="m42.6 98.7 169.6 47v226.7L42.6 415.1V98.7Z"></path><path class="cls-3" d="m212.3 170.7-72-11.6 72-81.8 71.8 81.8Z"></path><path class="cls-3" d="m284.1 159.1-71.9 11.7-71.9-11.7V77.3m72 264.9-72 13.4 72 70.2 71.8-70.2Z"></path><path class="cls-2" d="m212 16-72 38v105l72.2-20.3Zm.2 180.4-71.9 7.9V309l72 8.2V196.4Zm0 176.9-71.9-18v103l72 37.7V373.3Z"></path><path class="cls-1" d="m284.1 355.3-71.9 18V496l72-37.6V355.3Zm-71.9-158.9 72 7.9V309l-72 8.2V196.4ZM212 16l72 38v105l-72-20V16Z"></path></svg>