<svg xmlns="http://www.w3.org/2000/svg" viewBox="0 -1 939 843" width="80" height="80" class="m-auto mt-6">
    <path d="M642 571H298L151 828c18 9 38 14 51 14l548-2c14 0 27-4 39-12z" fill="#4185f3"></path>
    <path d="m151 828 147-257H0c0 18 6 34 16 53a3414 3414 0 0 0 102 178c7 10 34 26 33 26z" fill="#1767d1"></path>
    <path d="m642 571 147 257c19-12 35-31 45-49l88-151a107 107 0 0 0 16-57z" fill="#e94235"></path>
    <path d="m298 571 172-299L317 17a124 124 0 0 0-38 37L10 531a74 74 0 0 0-10 40z" fill="#30a753"></path>
    <path d="M642 571 470 272 619 17c17 11 35 25 41 37l270 477c7 12 9 26 8 40z" fill="#f9bc00"></path>
    <path d="m317 17 153 255L619 17a129 129 0 0 0-58-15c-59-2-154-3-205-1-13 1-39 16-39 16z" fill="#0f8038"></path>
</svg>