<svg xmlns="http://www.w3.org/2000/svg" viewBox="0 5.5 32 20.5" width="80" height="80" class="m-auto mt-6"><path d="m12.2 11.2 6.72 4.02 4-1.69A6.48 6.48 0 0 1 25.5 13c.15 0 .3 0 .44.02A10 10 0 0 0 7.9 10H8a7.96 7.96 0 0 1 4.2 1.2Z" fill="#0364b8"></path><path d="M12.2 11.2A7.96 7.96 0 0 0 8 10h-.1a8 8 0 0 0-6.46 12.57l5.92-2.49 2.63-1.1 5.87-2.48 3.06-1.28Z" fill="#0078d4"></path><path d="M25.94 13.02 25.5 13a6.48 6.48 0 0 0-2.58.53l-4 1.69 1.16.7 3.8 2.27 1.67 1 5.67 3.4a6.5 6.5 0 0 0-5.28-9.57Z" fill="#1490df"></path><path d="m25.55 19.18-1.66-.99-3.8-2.28-1.17-.7-3.06 1.3-5.87 2.46-2.63 1.11-5.92 2.5A7.99 7.99 0 0 0 8 26h17.5a6.5 6.5 0 0 0 5.72-3.42Z" fill="#28a8ea"></path></svg>